<?xml version="1.0" standalone="no"?>
<!DOCTYPE svg PUBLIC "-//W3C//DTD SVG 20010904//EN"
 "http://www.w3.org/TR/2001/REC-SVG-20010904/DTD/svg10.dtd">
<svg version="1.0" xmlns="http://www.w3.org/2000/svg"
 width="260.000000pt" height="260.000000pt" viewBox="0 0 260.000000 260.000000"
 preserveAspectRatio="xMidYMid meet">
<metadata>
Created by potrace 1.14, written by Peter Selinger 2001-2017
</metadata>
<g transform="translate(0.000000,260.000000) scale(0.100000,-0.100000)"
fill="#000000" stroke="none">
<path d="M1923 2063 c-7 -3 -13 -11 -13 -19 0 -9 -5 -12 -12 -8 -7 5 -9 2 -6
-8 4 -8 2 -21 -3 -29 -7 -12 -9 -12 -9 1 0 13 -1 13 -10 0 -9 -13 -11 -13 -20
0 -5 8 -10 12 -11 8 -2 -10 -6 -26 -9 -35 -1 -5 -1 -16 0 -27 1 -11 -3 -17
-12 -14 -7 3 -19 -2 -26 -11 -8 -9 -11 -10 -7 -4 4 8 1 11 -8 7 -9 -3 -13 -13
-10 -25 3 -10 0 -19 -6 -19 -5 0 -8 -7 -5 -15 4 -10 0 -15 -16 -15 -11 0 -18
-4 -15 -10 3 -5 1 -10 -5 -10 -6 0 -8 -4 -5 -10 3 -5 1 -10 -5 -10 -6 0 -8 -4
-5 -10 6 -9 -8 -14 -27 -11 -5 0 -8 -8 -8 -20 0 -13 -4 -18 -12 -13 -7 4 -8 3
-4 -4 4 -7 3 -12 -2 -12 -6 0 -9 -8 -8 -17 1 -17 -3 -19 -40 -22 -8 0 -13 -5
-9 -11 3 -5 13 -6 22 -3 11 4 14 3 9 -5 -4 -7 -17 -12 -29 -13 -21 0 -21 -1
-3 -8 19 -7 18 -8 -5 -14 -14 -4 -20 -10 -13 -14 6 -5 4 -14 -8 -25 -10 -10
-18 -14 -18 -9 0 6 5 13 10 16 6 4 7 11 4 17 -4 7 -10 4 -16 -6 -5 -9 -14 -13
-21 -9 -7 4 -4 -5 6 -20 15 -24 16 -26 0 -20 -11 4 -14 3 -9 -5 4 -7 2 -12 -4
-12 -6 0 -8 -4 -5 -10 3 -5 0 -7 -8 -4 -8 3 -22 -2 -31 -11 -19 -19 -21 -39
-3 -30 6 4 4 0 -5 -8 -10 -8 -14 -17 -10 -21 4 -4 0 -6 -8 -4 -8 2 -18 7 -22
13 -4 5 -10 6 -14 2 -4 -3 -2 -12 4 -19 7 -9 6 -19 -4 -32 -8 -11 -14 -16 -14
-10 -1 5 -8 -4 -16 -21 -8 -16 -12 -22 -10 -13 3 10 0 20 -7 24 -7 4 -9 4 -5
-1 4 -4 1 -14 -7 -22 -8 -8 -15 -23 -15 -33 0 -10 -5 -22 -10 -25 -6 -4 -7
-11 -4 -17 4 -6 2 -8 -4 -4 -6 3 -13 2 -16 -3 -4 -5 2 -11 11 -13 15 -3 15 -5
-3 -10 -21 -5 -28 12 -11 28 16 16 6 35 -15 32 -16 -2 -22 2 -20 12 3 12 1 13
-9 3 -24 -24 -39 -15 -39 22 0 35 -3 38 -51 38 -11 0 -14 9 -12 33 2 30 -1 34
-21 34 -29 0 -44 18 -41 47 1 12 -2 20 -7 17 -4 -3 -8 -1 -8 4 0 5 -9 9 -20 8
-11 0 -20 4 -21 9 0 6 -5 15 -10 22 -7 7 -6 12 2 15 7 2 5 9 -7 18 -16 13 -17
13 -9 0 7 -12 6 -13 -7 -3 -8 7 -18 10 -21 6 -4 -3 -10 8 -13 25 -4 18 -11 32
-16 32 -5 0 -6 4 -3 10 3 5 0 7 -8 4 -15 -5 -40 18 -35 32 5 16 -27 51 -44 48
-13 -1 -18 5 -18 22 0 13 -5 24 -11 24 -5 0 -7 5 -3 12 4 6 3 8 -4 4 -6 -3
-13 -2 -17 4 -4 6 -10 8 -14 6 -4 -3 -7 -265 -7 -583 l1 -578 22 2 c17 2 21
-1 17 -15 -5 -13 -4 -14 4 -3 12 17 88 17 108 0 12 -10 13 -9 8 4 -7 20 23 17
38 -4 8 -11 9 -11 4 4 -7 21 7 22 28 1 9 -8 16 -11 16 -6 0 5 9 12 21 15 15 4
18 2 10 -7 -7 -8 -5 -12 8 -12 10 0 17 5 14 11 -2 8 21 11 77 9 58 -1 78 1 73
9 -5 9 -3 9 8 1 8 -7 37 -10 67 -8 31 2 52 0 52 -7 0 -5 -5 -7 -12 -3 -7 4 -8
3 -4 -4 9 -16 -7 -15 -22 0 -9 9 -15 8 -26 -8 -8 -10 -12 -21 -10 -23 2 -3 10
4 18 14 13 18 14 18 23 0 7 -12 12 -14 18 -6 5 9 11 9 23 -1 14 -10 15 -10 5
1 -6 7 -9 20 -6 27 7 19 33 18 33 -1 0 -15 32 -16 46 -2 4 3 -3 5 -15 2 -11
-2 -21 0 -21 4 0 5 28 8 63 8 34 0 72 3 85 6 13 3 20 2 17 -4 -8 -12 2 -12 27
2 13 7 18 7 14 1 -7 -12 32 -10 51 1 6 4 14 3 18 -3 4 -7 12 -7 26 0 14 8 19
7 19 -1 0 -8 4 -8 15 1 12 10 15 10 15 -1 0 -11 2 -11 10 1 9 13 10 13 10 0 0
-13 1 -13 10 0 9 13 10 13 10 0 0 -13 1 -13 10 0 9 13 10 13 10 0 0 -13 1 -13
10 0 6 10 10 11 10 3 0 -9 7 -10 23 -4 12 5 32 5 45 0 15 -6 21 -5 17 1 -3 6
-1 10 4 10 12 0 7 62 -5 83 -5 8 -2 8 9 -1 14 -12 15 -11 7 16 -4 17 -6 33 -3
36 3 3 5 61 6 130 0 80 4 123 10 119 6 -4 7 -1 1 8 -13 21 -13 359 0 359 7 0
7 3 1 8 -14 10 -15 56 -1 64 8 6 8 8 -1 8 -17 0 -17 32 -1 48 9 9 10 15 2 20
-13 8 -13 50 0 71 6 10 5 12 -2 7 -14 -8 -12 20 2 43 6 9 5 12 -1 8 -6 -4 -10
4 -10 18 0 14 4 22 10 18 6 -4 7 -1 1 8 -12 20 -14 38 -3 45 5 3 9 11 9 17 0
7 -4 6 -10 -3 -6 -10 -8 3 -7 40 2 30 7 61 11 69 6 10 5 12 -2 7 -13 -8 -17 6
-5 18 13 12 11 33 -3 33 -11 0 -11 -4 -2 -16 9 -12 7 -11 -8 2 -23 19 -39 23
-28 5 4 -7 3 -8 -4 -4 -13 8 -1 40 21 52 7 5 6 0 -3 -11 -12 -15 -12 -17 -1
-10 10 5 12 4 7 -3 -5 -8 -1 -10 9 -5 12 4 13 8 5 13 -6 4 -11 10 -10 14 3 14
-5 23 -17 19z m-39 -121 c3 -5 -1 -9 -9 -9 -8 0 -15 4 -15 9 0 4 4 8 9 8 6 0
12 -4 15 -8z m-74 -58 c0 -8 -19 -13 -24 -6 -3 5 1 9 9 9 8 0 15 -2 15 -3z
m-985 -72 c-3 -3 -11 0 -18 7 -9 10 -8 11 6 5 10 -3 15 -9 12 -12z m559 -454
c-3 -4 -11 -5 -19 -1 -21 7 -19 12 4 10 11 0 18 -5 15 -9z"/>
<path d="M1480 1560 c-9 -6 -10 -10 -3 -10 6 0 15 5 18 10 8 12 4 12 -15 0z"/>
<path d="M1400 1449 c0 -5 5 -7 10 -4 6 3 10 8 10 11 0 2 -4 4 -10 4 -5 0 -10
-5 -10 -11z"/>
<path d="M1555 691 c-3 -5 -2 -12 3 -15 5 -3 9 1 9 9 0 17 -3 19 -12 6z"/>
<path d="M1131 668 c5 -10 12 -18 14 -18 2 0 3 8 2 18 0 10 -7 19 -13 19 -9 0
-10 -5 -3 -19z"/>
<path d="M1160 685 c0 -5 4 -16 9 -23 6 -11 10 -10 15 4 3 9 4 19 1 22 -3 3
-5 -1 -5 -9 0 -11 -2 -11 -10 1 -5 8 -10 11 -10 5z"/>
<path d="M1200 680 c0 -5 5 -10 11 -10 5 0 7 5 4 10 -3 6 -8 10 -11 10 -2 0
-4 -4 -4 -10z"/>
<path d="M1242 683 c-10 -4 -9 -8 4 -18 15 -10 20 -10 31 1 7 7 13 16 13 20 0
5 -5 3 -12 -4 -15 -15 -32 -16 -23 -2 7 11 6 11 -13 3z"/>
<path d="M1510 670 c-9 -6 -10 -10 -3 -10 6 0 15 5 18 10 8 12 4 12 -15 0z"/>
<path d="M1456 661 c-4 -5 3 -7 14 -4 23 6 26 13 6 13 -8 0 -17 -4 -20 -9z"/>
<path d="M1536 655 c-9 -26 -7 -32 5 -12 6 10 9 21 6 23 -2 3 -7 -2 -11 -11z"/>
</g>
</svg>
